<svg width="100" height="100" viewBox="0 0 50 50" fill="none" xmlns="http://www.w3.org/2000/svg">
<path d="M29.1666 16.6667H39.5833M31.25 25H39.5833M35.4166 33.3333H39.5833M35.4166 43.75H14.5833C6.24996 43.75 4.16663 41.6667 4.16663 33.3333V16.6667C4.16663 8.33333 6.24996 6.25 14.5833 6.25H35.4166C43.75 6.25 45.8333 8.33333 45.8333 16.6667V33.3333C45.8333 41.6667 43.75 43.75 35.4166 43.75Z" stroke="black" stroke-width="1.5" stroke-linecap="round" stroke-linejoin="round"/>
<path d="M25 34.0208C24.8597 32.5584 24.2122 31.1912 23.1696 30.1562C22.127 29.1212 20.755 28.4837 19.2916 28.3542C18.2386 28.25 17.1779 28.25 16.125 28.3542C14.663 28.4876 13.2933 29.1264 12.2514 30.1606C11.2096 31.1949 10.5607 32.5599 10.4166 34.0208M17.7083 23.5208C18.7084 23.5208 19.6675 23.1235 20.3747 22.4164C21.0818 21.7092 21.4791 20.7501 21.4791 19.75C21.4791 18.7499 21.0818 17.7908 20.3747 17.0836C19.6675 16.3764 18.7084 15.9792 17.7083 15.9792C16.7082 15.9792 15.7491 16.3764 15.0419 17.0836C14.3347 17.7908 13.9375 18.7499 13.9375 19.75C13.9375 20.7501 14.3347 21.7092 15.0419 22.4164C15.7491 23.1235 16.7082 23.5208 17.7083 23.5208Z" stroke="black" stroke-width="1.5" stroke-linecap="round" stroke-linejoin="round"/>
</svg>
