<svg width="100" height="100" viewBox="0 0 50 50" fill="none" xmlns="http://www.w3.org/2000/svg">
<path d="M37.4583 22.4792V30.8125C37.4583 31.3542 37.4375 31.875 37.375 32.375C36.8958 38 33.5833 40.7917 27.4791 40.7917H26.6458C26.125 40.7917 25.625 41.0417 25.3125 41.4583L22.8125 44.7917C21.7083 46.2708 19.9166 46.2708 18.8125 44.7917L16.3125 41.4583C16.1457 41.2641 15.9419 41.1052 15.7129 40.9907C15.484 40.8762 15.2345 40.8086 14.9791 40.7917H14.1458C7.49996 40.7917 4.16663 39.1458 4.16663 30.8125V22.4792C4.16663 16.375 6.97913 13.0625 12.5833 12.5833C13.0833 12.5208 13.6041 12.5 14.1458 12.5H27.4791C34.125 12.5 37.4583 15.8333 37.4583 22.4792Z" stroke="black" stroke-width="1.5" stroke-miterlimit="10" stroke-linecap="round" stroke-linejoin="round"/>
<path d="M45.7917 14.1458V22.4792C45.7917 28.6042 42.9792 31.8958 37.375 32.375C37.4375 31.875 37.4584 31.3542 37.4584 30.8125V22.4792C37.4584 15.8333 34.125 12.5 27.4792 12.5H14.1459C13.6042 12.5 13.0834 12.5208 12.5834 12.5833C13.0625 6.97916 16.375 4.16666 22.4792 4.16666H35.8125C42.4584 4.16666 45.7917 7.49999 45.7917 14.1458Z" stroke="black" stroke-width="1.5" stroke-miterlimit="10" stroke-linecap="round" stroke-linejoin="round"/>
<path d="M28.1146 27.6042H28.1354M20.8229 27.6042H20.8438M13.5312 27.6042H13.5521" stroke="black" stroke-width="2" stroke-linecap="round" stroke-linejoin="round"/>
</svg>
